<svg width="70" height="69" viewBox="0 0 70 69" fill="none" xmlns="http://www.w3.org/2000/svg">
<g filter="url(#filter0_iii_2_1091)">
<path d="M2.83594 22C2.83594 10.9543 11.7902 2 22.8359 2H47.8359C58.8816 2 67.8359 10.9543 67.8359 22V47C67.8359 58.0457 58.8816 67 47.8359 67H22.8359C11.7902 67 2.83594 58.0457 2.83594 47V22Z" fill="#442B1B"/>
<path d="M47.8359 1C59.4339 1 68.8359 10.402 68.8359 22V47C68.8359 58.598 59.4339 68 47.8359 68H22.8359C11.238 68 1.83594 58.598 1.83594 47V22L1.84277 21.458C2.13025 10.1105 11.4192 1 22.8359 1H47.8359Z" stroke="black" stroke-width="2"/>
<path d="M32.4192 42.8333L21.5859 32C20.2664 30.6805 19.972 29.1708 20.7025 27.4708C21.4303 25.768 22.7317 24.9166 24.6067 24.9166H46.065C47.94 24.9166 49.2414 25.768 49.9692 27.4708C50.6998 29.1708 50.4053 30.6805 49.0859 32L38.2525 42.8333C37.8359 43.25 37.3845 43.5625 36.8984 43.7708C36.4123 43.9791 35.8914 44.0833 35.3359 44.0833C34.7803 44.0833 34.2595 43.9791 33.7734 43.7708C33.2873 43.5625 32.8359 43.25 32.4192 42.8333Z" fill="white"/>
</g>
<defs>
<filter id="filter0_iii_2_1091" x="0.835938" y="-4" width="69" height="81.5" filterUnits="userSpaceOnUse" color-interpolation-filters="sRGB">
<feFlood flood-opacity="0" result="BackgroundImageFix"/>
<feBlend mode="normal" in="SourceGraphic" in2="BackgroundImageFix" result="shape"/>
<feColorMatrix in="SourceAlpha" type="matrix" values="0 0 0 0 0 0 0 0 0 0 0 0 0 0 0 0 0 0 127 0" result="hardAlpha"/>
<feOffset dy="-10"/>
<feGaussianBlur stdDeviation="2"/>
<feComposite in2="hardAlpha" operator="arithmetic" k2="-1" k3="1"/>
<feColorMatrix type="matrix" values="0 0 0 0 0 0 0 0 0 0 0 0 0 0 0 0 0 0 0.25 0"/>
<feBlend mode="normal" in2="shape" result="effect1_innerShadow_2_1091"/>
<feColorMatrix in="SourceAlpha" type="matrix" values="0 0 0 0 0 0 0 0 0 0 0 0 0 0 0 0 0 0 127 0" result="hardAlpha"/>
<feOffset dy="62"/>
<feGaussianBlur stdDeviation="4.25"/>
<feComposite in2="hardAlpha" operator="arithmetic" k2="-1" k3="1"/>
<feColorMatrix type="matrix" values="0 0 0 0 0.18175 0 0 0 0 0.166012 0 0 0 0 0.158143 0 0 0 0.25 0"/>
<feBlend mode="plus-lighter" in2="effect1_innerShadow_2_1091" result="effect2_innerShadow_2_1091"/>
<feColorMatrix in="SourceAlpha" type="matrix" values="0 0 0 0 0 0 0 0 0 0 0 0 0 0 0 0 0 0 127 0" result="hardAlpha"/>
<feOffset dy="3"/>
<feComposite in2="hardAlpha" operator="arithmetic" k2="-1" k3="1"/>
<feColorMatrix type="matrix" values="0 0 0 0 1 0 0 0 0 1 0 0 0 0 1 0 0 0 1 0"/>
<feBlend mode="normal" in2="effect2_innerShadow_2_1091" result="effect3_innerShadow_2_1091"/>
</filter>
</defs>
</svg>
