<svg width="222" height="123" viewBox="0 0 222 123" fill="none" xmlns="http://www.w3.org/2000/svg">
<mask id="path-1-outside-1_2_688" maskUnits="userSpaceOnUse" x="0.120117" y="-0.30957" width="222" height="123" fill="black">
<rect fill="white" x="0.120117" y="-0.30957" width="222" height="123"/>
<path d="M19.5361 111.49C17.2321 111.49 15.2695 110.68 13.6481 109.058C12.0268 107.437 11.2161 105.474 11.2161 103.17C11.2161 100.952 12.0268 99.0318 13.6481 97.4104C15.2695 95.7891 17.2321 94.9784 19.5361 94.9784H51.2801V82.8184H24.6561C22.3521 82.8184 20.3468 82.0078 18.6401 80.3864C17.0188 78.6798 16.2081 76.6318 16.2081 74.2424V22.0184C16.2081 19.6291 17.0188 17.6238 18.6401 16.0024C20.3468 14.2958 22.3521 13.4424 24.6561 13.4424H81.4881C87.9735 13.4424 93.5201 15.7464 98.1281 20.3544C102.736 24.9624 105.04 30.5091 105.04 36.9944V74.2424C105.04 76.6318 104.187 78.6798 102.48 80.3864C100.773 82.0078 98.7681 82.8184 96.4641 82.8184H69.8401V94.9784H101.584C103.888 94.9784 105.851 95.7891 107.472 97.4104C109.093 99.0318 109.904 100.952 109.904 103.17C109.904 105.474 109.093 107.437 107.472 109.058C105.851 110.68 103.888 111.49 101.584 111.49H19.5361ZM34.6401 29.9544V66.3064H86.4801V38.5304C86.4801 36.2264 85.6268 34.2211 83.9201 32.5144C82.2988 30.8078 80.2935 29.9544 77.9041 29.9544H34.6401ZM192.227 20.6104C192.227 18.0504 193.123 15.8744 194.915 14.0824C196.707 12.2904 198.883 11.3944 201.443 11.3944C204.003 11.3944 206.179 12.2904 207.971 14.0824C209.848 15.8744 210.787 18.0504 210.787 20.6104V102.274C210.787 104.834 209.848 107.01 207.971 108.802C206.179 110.594 204.003 111.49 201.443 111.49C198.883 111.49 196.707 110.594 194.915 108.802C193.123 107.01 192.227 104.834 192.227 102.274V20.6104ZM126.307 11.3944C128.867 11.3944 131.043 12.2904 132.835 14.0824C134.712 15.8744 135.651 18.0504 135.651 20.6104V45.9544H164.195V20.6104C164.195 18.0504 165.091 15.8744 166.883 14.0824C168.675 12.2904 170.851 11.3944 173.411 11.3944C175.971 11.3944 178.147 12.2904 179.939 14.0824C181.731 15.8744 182.627 18.0504 182.627 20.6104V101.25C182.627 103.64 181.774 105.645 180.067 107.266C178.446 108.973 176.483 109.826 174.179 109.826H140.643C134.158 109.826 128.611 107.522 124.003 102.914C119.395 98.3064 117.091 92.7598 117.091 86.2744V20.6104C117.091 18.0504 117.987 15.8744 119.779 14.0824C121.571 12.2904 123.747 11.3944 126.307 11.3944ZM164.195 62.4664H135.651V84.7384C135.651 87.1278 136.462 89.1758 138.083 90.8824C139.79 92.5038 141.838 93.3144 144.227 93.3144H164.195V62.4664Z"/>
</mask>
<path d="M19.5361 111.49C17.2321 111.49 15.2695 110.68 13.6481 109.058C12.0268 107.437 11.2161 105.474 11.2161 103.17C11.2161 100.952 12.0268 99.0318 13.6481 97.4104C15.2695 95.7891 17.2321 94.9784 19.5361 94.9784H51.2801V82.8184H24.6561C22.3521 82.8184 20.3468 82.0078 18.6401 80.3864C17.0188 78.6798 16.2081 76.6318 16.2081 74.2424V22.0184C16.2081 19.6291 17.0188 17.6238 18.6401 16.0024C20.3468 14.2958 22.3521 13.4424 24.6561 13.4424H81.4881C87.9735 13.4424 93.5201 15.7464 98.1281 20.3544C102.736 24.9624 105.04 30.5091 105.04 36.9944V74.2424C105.04 76.6318 104.187 78.6798 102.48 80.3864C100.773 82.0078 98.7681 82.8184 96.4641 82.8184H69.8401V94.9784H101.584C103.888 94.9784 105.851 95.7891 107.472 97.4104C109.093 99.0318 109.904 100.952 109.904 103.17C109.904 105.474 109.093 107.437 107.472 109.058C105.851 110.68 103.888 111.49 101.584 111.49H19.5361ZM34.6401 29.9544V66.3064H86.4801V38.5304C86.4801 36.2264 85.6268 34.2211 83.9201 32.5144C82.2988 30.8078 80.2935 29.9544 77.9041 29.9544H34.6401ZM192.227 20.6104C192.227 18.0504 193.123 15.8744 194.915 14.0824C196.707 12.2904 198.883 11.3944 201.443 11.3944C204.003 11.3944 206.179 12.2904 207.971 14.0824C209.848 15.8744 210.787 18.0504 210.787 20.6104V102.274C210.787 104.834 209.848 107.01 207.971 108.802C206.179 110.594 204.003 111.49 201.443 111.49C198.883 111.49 196.707 110.594 194.915 108.802C193.123 107.01 192.227 104.834 192.227 102.274V20.6104ZM126.307 11.3944C128.867 11.3944 131.043 12.2904 132.835 14.0824C134.712 15.8744 135.651 18.0504 135.651 20.6104V45.9544H164.195V20.6104C164.195 18.0504 165.091 15.8744 166.883 14.0824C168.675 12.2904 170.851 11.3944 173.411 11.3944C175.971 11.3944 178.147 12.2904 179.939 14.0824C181.731 15.8744 182.627 18.0504 182.627 20.6104V101.25C182.627 103.64 181.774 105.645 180.067 107.266C178.446 108.973 176.483 109.826 174.179 109.826H140.643C134.158 109.826 128.611 107.522 124.003 102.914C119.395 98.3064 117.091 92.7598 117.091 86.2744V20.6104C117.091 18.0504 117.987 15.8744 119.779 14.0824C121.571 12.2904 123.747 11.3944 126.307 11.3944ZM164.195 62.4664H135.651V84.7384C135.651 87.1278 136.462 89.1758 138.083 90.8824C139.79 92.5038 141.838 93.3144 144.227 93.3144H164.195V62.4664Z" fill="#FFC414"/>
<path d="M13.6481 109.058L21.4263 101.28L21.4263 101.28L13.6481 109.058ZM13.6481 97.4104L21.4263 105.189L13.6481 97.4104ZM51.2801 94.9784V105.978H62.2801V94.9784H51.2801ZM51.2801 82.8184H62.2801V71.8184H51.2801V82.8184ZM18.6401 80.3864L10.6651 87.9627L10.8594 88.1672L11.0639 88.3614L18.6401 80.3864ZM18.6401 16.0024L10.8619 8.22425L10.8619 8.22425L18.6401 16.0024ZM98.1281 20.3544L105.906 12.5762L105.906 12.5762L98.1281 20.3544ZM102.48 80.3864L110.056 88.3614L110.159 88.2643L110.258 88.1646L102.48 80.3864ZM69.8401 82.8184V71.8184H58.8401V82.8184H69.8401ZM69.8401 94.9784H58.8401V105.978H69.8401V94.9784ZM107.472 97.4104L115.25 89.6323L107.472 97.4104ZM107.472 109.058L99.6939 101.28L107.472 109.058ZM34.6401 29.9544V18.9544H23.6401V29.9544H34.6401ZM34.6401 66.3064H23.6401V77.3064H34.6401V66.3064ZM86.4801 66.3064V77.3064H97.4801V66.3064H86.4801ZM83.9201 32.5144L75.9451 40.0907L76.0422 40.1929L76.1419 40.2926L83.9201 32.5144ZM19.5361 111.49V100.49C19.7016 100.49 20.0756 100.526 20.5355 100.716C20.9964 100.906 21.2954 101.149 21.4263 101.28L13.6481 109.058L5.86994 116.837C9.56538 120.532 14.3306 122.49 19.5361 122.49V111.49ZM13.6481 109.058L21.4263 101.28C21.5572 101.411 21.8006 101.71 21.991 102.171C22.1809 102.631 22.2161 103.005 22.2161 103.17H11.2161H0.216117C0.216117 108.376 2.17451 113.141 5.86994 116.837L13.6481 109.058ZM11.2161 103.17H22.2161C22.2161 103.435 22.1605 103.865 21.9579 104.345C21.7582 104.818 21.5184 105.096 21.4263 105.189L13.6481 97.4104L5.86994 89.6323C2.26286 93.2393 0.216117 97.9271 0.216117 103.17H11.2161ZM13.6481 97.4104L21.4263 105.189C21.2954 105.32 20.9964 105.563 20.5355 105.753C20.0756 105.943 19.7016 105.978 19.5361 105.978V94.9784V83.9784C14.3306 83.9784 9.56538 85.9368 5.86994 89.6323L13.6481 97.4104ZM19.5361 94.9784V105.978H51.2801V94.9784V83.9784H19.5361V94.9784ZM51.2801 94.9784H62.2801V82.8184H51.2801H40.2801V94.9784H51.2801ZM51.2801 82.8184V71.8184H24.6561V82.8184V93.8184H51.2801V82.8184ZM24.6561 82.8184V71.8184C24.8239 71.8184 25.1558 71.8541 25.5468 72.0122C25.9336 72.1686 26.1571 72.3552 26.2164 72.4114L18.6401 80.3864L11.0639 88.3614C14.7655 91.878 19.465 93.8184 24.6561 93.8184V82.8184ZM18.6401 80.3864L26.6151 72.8102C26.7069 72.9068 26.8963 73.1487 27.044 73.5219C27.1906 73.8922 27.2081 74.1691 27.2081 74.2424H16.2081H5.20812C5.20812 79.4044 7.06945 84.1778 10.6651 87.9627L18.6401 80.3864ZM16.2081 74.2424H27.2081V22.0184H16.2081H5.20812V74.2424H16.2081ZM16.2081 22.0184H27.2081C27.2081 22.0887 27.1914 22.4072 27.0143 22.8451C26.8337 23.292 26.5877 23.6111 26.4183 23.7806L18.6401 16.0024L10.8619 8.22425C7.08295 12.0032 5.20812 16.8485 5.20812 22.0184H16.2081ZM18.6401 16.0024L26.4183 23.7806C26.3825 23.8164 26.1575 24.0228 25.7312 24.2041C25.2949 24.3898 24.8982 24.4424 24.6561 24.4424V13.4424V2.44243C19.2838 2.44243 14.5223 4.56395 10.8619 8.22425L18.6401 16.0024ZM24.6561 13.4424V24.4424H81.4881V13.4424V2.44243H24.6561V13.4424ZM81.4881 13.4424V24.4424C85.0402 24.4424 87.7936 25.5763 90.35 28.1326L98.1281 20.3544L105.906 12.5762C99.2466 5.91658 90.9067 2.44243 81.4881 2.44243V13.4424ZM98.1281 20.3544L90.3499 28.1326C92.9063 30.6889 94.0401 33.4423 94.0401 36.9944H105.04H116.04C116.04 27.5759 112.566 19.2359 105.906 12.5762L98.1281 20.3544ZM105.04 36.9944H94.0401V74.2424H105.04H116.04V36.9944H105.04ZM105.04 74.2424H94.0401C94.0401 74.0977 94.0725 73.7566 94.2463 73.3397C94.4191 72.9249 94.6292 72.681 94.702 72.6083L102.48 80.3864L110.258 88.1646C114.004 84.4186 116.04 79.5823 116.04 74.2424H105.04ZM102.48 80.3864L94.9039 72.4114C94.9631 72.3552 95.1867 72.1686 95.5734 72.0122C95.9644 71.8541 96.2963 71.8184 96.4641 71.8184V82.8184V93.8184C101.655 93.8184 106.355 91.878 110.056 88.3614L102.48 80.3864ZM96.4641 82.8184V71.8184H69.8401V82.8184V93.8184H96.4641V82.8184ZM69.8401 82.8184H58.8401V94.9784H69.8401H80.8401V82.8184H69.8401ZM69.8401 94.9784V105.978H101.584V94.9784V83.9784H69.8401V94.9784ZM101.584 94.9784V105.978C101.419 105.978 101.045 105.943 100.585 105.753C100.124 105.563 99.8249 105.32 99.6939 105.189L107.472 97.4104L115.25 89.6323C111.555 85.9368 106.79 83.9784 101.584 83.9784V94.9784ZM107.472 97.4104L99.6939 105.189C99.6018 105.096 99.362 104.818 99.1624 104.345C98.9597 103.865 98.9041 103.435 98.9041 103.17H109.904H120.904C120.904 97.9271 118.857 93.2393 115.25 89.6323L107.472 97.4104ZM109.904 103.17H98.9041C98.9041 103.005 98.9393 102.631 99.1292 102.171C99.3196 101.71 99.563 101.411 99.6939 101.28L107.472 109.058L115.25 116.837C118.946 113.141 120.904 108.376 120.904 103.17H109.904ZM107.472 109.058L99.6939 101.28C99.8249 101.149 100.124 100.906 100.585 100.716C101.045 100.526 101.419 100.49 101.584 100.49V111.49V122.49C106.79 122.49 111.555 120.532 115.25 116.837L107.472 109.058ZM101.584 111.49V100.49H19.5361V111.49V122.49H101.584V111.49ZM34.6401 29.9544H23.6401V66.3064H34.6401H45.6401V29.9544H34.6401ZM34.6401 66.3064V77.3064H86.4801V66.3064V55.3064H34.6401V66.3064ZM86.4801 66.3064H97.4801V38.5304H86.4801H75.4801V66.3064H86.4801ZM86.4801 38.5304H97.4801C97.4801 33.1581 95.3586 28.3966 91.6983 24.7363L83.9201 32.5144L76.1419 40.2926C76.1061 40.2568 75.8998 40.0318 75.7184 39.6055C75.5327 39.1692 75.4801 38.7726 75.4801 38.5304H86.4801ZM83.9201 32.5144L91.8951 24.9382C88.162 21.0086 83.2575 18.9544 77.9041 18.9544V29.9544V40.9544C77.7621 40.9544 77.3785 40.9227 76.893 40.7161C76.404 40.508 76.0863 40.2392 75.9451 40.0907L83.9201 32.5144ZM77.9041 29.9544V18.9544H34.6401V29.9544V40.9544H77.9041V29.9544ZM194.915 14.0824L202.693 21.8606L202.693 21.8606L194.915 14.0824ZM207.971 14.0824L200.193 21.8606L200.283 21.951L200.376 22.0393L207.971 14.0824ZM207.971 108.802L200.376 100.846L200.283 100.934L200.193 101.024L207.971 108.802ZM194.915 108.802L202.693 101.024V101.024L194.915 108.802ZM132.835 14.0824L125.057 21.8606L125.147 21.951L125.24 22.0393L132.835 14.0824ZM135.651 45.9544H124.651V56.9544H135.651V45.9544ZM164.195 45.9544V56.9544H175.195V45.9544H164.195ZM166.883 14.0824L174.661 21.8606L174.661 21.8606L166.883 14.0824ZM179.939 14.0824L172.161 21.8606L172.161 21.8606L179.939 14.0824ZM180.067 107.266L172.491 99.2914L172.286 99.4857L172.092 99.6902L180.067 107.266ZM124.003 102.914L131.781 95.1363L124.003 102.914ZM119.779 14.0824L127.557 21.8606L127.557 21.8606L119.779 14.0824ZM164.195 62.4664H175.195V51.4664H164.195V62.4664ZM135.651 62.4664V51.4664H124.651V62.4664H135.651ZM138.083 90.8824L130.108 98.4587L130.302 98.6632L130.507 98.8574L138.083 90.8824ZM164.195 93.3144V104.314H175.195V93.3144H164.195ZM192.227 20.6104H203.227C203.227 20.6402 203.216 20.8934 203.071 21.2467C202.924 21.6021 202.744 21.8095 202.693 21.8606L194.915 14.0824L187.137 6.30424C183.259 10.1826 181.227 15.1663 181.227 20.6104H192.227ZM194.915 14.0824L202.693 21.8606C202.642 21.9117 202.435 22.0915 202.079 22.2379C201.726 22.3833 201.473 22.3944 201.443 22.3944V11.3944V0.394424C195.999 0.394424 191.015 2.42593 187.137 6.30426L194.915 14.0824ZM201.443 11.3944V22.3944C201.413 22.3944 201.16 22.3833 200.807 22.2379C200.451 22.0915 200.244 21.9117 200.193 21.8606L207.971 14.0824L215.749 6.30425C211.871 2.42593 206.887 0.394424 201.443 0.394424V11.3944ZM207.971 14.0824L200.376 22.0393C200.349 22.0133 200.152 21.8075 199.983 21.4154C199.812 21.0201 199.787 20.7073 199.787 20.6104H210.787H221.787C221.787 14.9977 219.584 9.96076 215.566 6.12551L207.971 14.0824ZM210.787 20.6104H199.787V102.274H210.787H221.787V20.6104H210.787ZM210.787 102.274H199.787C199.787 102.178 199.812 101.865 199.983 101.469C200.152 101.077 200.349 100.872 200.376 100.846L207.971 108.802L215.566 116.759C219.584 112.924 221.787 107.887 221.787 102.274H210.787ZM207.971 108.802L200.193 101.024C200.244 100.973 200.451 100.793 200.807 100.647C201.16 100.502 201.413 100.49 201.443 100.49V111.49V122.49C206.887 122.49 211.871 120.459 215.749 116.581L207.971 108.802ZM201.443 111.49V100.49C201.473 100.49 201.726 100.502 202.079 100.647C202.435 100.793 202.642 100.973 202.693 101.024L194.915 108.802L187.137 116.581C191.015 120.459 195.999 122.49 201.443 122.49V111.49ZM194.915 108.802L202.693 101.024C202.744 101.075 202.924 101.283 203.071 101.638C203.216 101.991 203.227 102.245 203.227 102.274H192.227H181.227C181.227 107.719 183.259 112.702 187.137 116.581L194.915 108.802ZM192.227 102.274H203.227V20.6104H192.227H181.227V102.274H192.227ZM126.307 11.3944V22.3944C126.277 22.3944 126.024 22.3833 125.671 22.2379C125.315 22.0915 125.108 21.9117 125.057 21.8606L132.835 14.0824L140.613 6.30426C136.735 2.42593 131.751 0.394424 126.307 0.394424V11.3944ZM132.835 14.0824L125.24 22.0393C125.213 22.0133 125.016 21.8075 124.847 21.4154C124.676 21.0201 124.651 20.7073 124.651 20.6104H135.651H146.651C146.651 14.9977 144.448 9.96077 140.43 6.12551L132.835 14.0824ZM135.651 20.6104H124.651V45.9544H135.651H146.651V20.6104H135.651ZM135.651 45.9544V56.9544H164.195V45.9544V34.9544H135.651V45.9544ZM164.195 45.9544H175.195V20.6104H164.195H153.195V45.9544H164.195ZM164.195 20.6104H175.195C175.195 20.6402 175.184 20.8934 175.039 21.2467C174.892 21.6021 174.712 21.8095 174.661 21.8606L166.883 14.0824L159.105 6.30424C155.227 10.1826 153.195 15.1663 153.195 20.6104H164.195ZM166.883 14.0824L174.661 21.8606C174.61 21.9117 174.403 22.0915 174.047 22.2379C173.694 22.3833 173.441 22.3944 173.411 22.3944V11.3944V0.394424C167.967 0.394424 162.983 2.42593 159.105 6.30426L166.883 14.0824ZM173.411 11.3944V22.3944C173.381 22.3944 173.128 22.3833 172.775 22.2379C172.419 22.0915 172.212 21.9117 172.161 21.8606L179.939 14.0824L187.717 6.30426C183.839 2.42593 178.855 0.394424 173.411 0.394424V11.3944ZM179.939 14.0824L172.161 21.8606C172.11 21.8095 171.93 21.6021 171.784 21.2467C171.638 20.8934 171.627 20.6402 171.627 20.6104H182.627H193.627C193.627 15.1663 191.596 10.1826 187.717 6.30424L179.939 14.0824ZM182.627 20.6104H171.627V101.25H182.627H193.627V20.6104H182.627ZM182.627 101.25H171.627C171.627 101.108 171.659 100.725 171.865 100.239C172.074 99.7503 172.342 99.4326 172.491 99.2914L180.067 107.266L187.643 115.241C191.573 111.508 193.627 106.604 193.627 101.25H182.627ZM180.067 107.266L172.092 99.6902C172.195 99.5816 172.492 99.3164 172.993 99.0987C173.499 98.8787 173.939 98.8264 174.179 98.8264V109.826V120.826C179.572 120.826 184.395 118.682 188.042 114.843L180.067 107.266ZM174.179 109.826V98.8264H140.643V109.826V120.826H174.179V109.826ZM140.643 109.826V98.8264C137.091 98.8264 134.338 97.6926 131.781 95.1363L124.003 102.914L116.225 110.693C122.885 117.352 131.225 120.826 140.643 120.826V109.826ZM124.003 102.914L131.781 95.1363C129.225 92.5799 128.091 89.8265 128.091 86.2744H117.091H106.091C106.091 95.693 109.565 104.033 116.225 110.693L124.003 102.914ZM117.091 86.2744H128.091V20.6104H117.091H106.091V86.2744H117.091ZM117.091 20.6104H128.091C128.091 20.6401 128.08 20.8934 127.935 21.2467C127.788 21.6021 127.608 21.8095 127.557 21.8606L119.779 14.0824L112.001 6.30425C108.123 10.1826 106.091 15.1663 106.091 20.6104H117.091ZM119.779 14.0824L127.557 21.8606C127.506 21.9117 127.299 22.0915 126.943 22.2379C126.59 22.3833 126.337 22.3944 126.307 22.3944V11.3944V0.394424C120.863 0.394424 115.879 2.42593 112.001 6.30426L119.779 14.0824ZM164.195 62.4664V51.4664H135.651V62.4664V73.4664H164.195V62.4664ZM135.651 62.4664H124.651V84.7384H135.651H146.651V62.4664H135.651ZM135.651 84.7384H124.651C124.651 89.9004 126.512 94.6738 130.108 98.4587L138.083 90.8824L146.058 83.3062C146.15 83.4028 146.339 83.6447 146.487 84.0179C146.634 84.3882 146.651 84.6651 146.651 84.7384H135.651ZM138.083 90.8824L130.507 98.8574C134.292 102.453 139.065 104.314 144.227 104.314V93.3144V82.3144C144.3 82.3144 144.577 82.332 144.948 82.4786C145.321 82.6263 145.563 82.8156 145.659 82.9074L138.083 90.8824ZM144.227 93.3144V104.314H164.195V93.3144V82.3144H144.227V93.3144ZM164.195 93.3144H175.195V62.4664H164.195H153.195V93.3144H164.195Z" fill="#4D2700" mask="url(#path-1-outside-1_2_688)"/>
</svg>
