<svg width="297" height="80" viewBox="0 0 297 80" fill="none" xmlns="http://www.w3.org/2000/svg">
<path d="M35.3301 0H221.33C232.376 0 241.33 8.95431 241.33 20V60C241.33 71.0457 232.376 80 221.33 80H35.3301V0Z" fill="#EEEEEE"/>
<path d="M122.058 53.668C122.986 53.668 123.77 54.004 124.41 54.676C125.082 55.316 125.418 56.084 125.418 56.98C125.418 57.908 125.082 58.692 124.41 59.332C123.77 60.004 122.986 60.34 122.058 60.34H101.61C100.17 60.34 99.1141 59.588 98.4421 58.084C97.9941 56.644 98.3461 55.412 99.4981 54.388L116.346 40.948C117.594 39.86 118.218 38.564 118.218 37.06C118.218 35.684 117.722 34.516 116.73 33.556C115.77 32.564 114.602 32.068 113.226 32.068H109.29C108.234 32.068 107.322 32.452 106.554 33.22C105.818 33.956 105.45 34.852 105.45 35.908C105.45 36.836 105.13 37.62 104.49 38.26C103.85 38.9 103.066 39.22 102.138 39.22C101.21 39.22 100.41 38.9 99.7381 38.26C99.0981 37.62 98.7781 36.836 98.7781 35.908C98.7781 32.996 99.8021 30.516 101.85 28.468C103.898 26.42 106.378 25.396 109.29 25.396H113.226C116.426 25.396 119.162 26.548 121.434 28.852C123.738 31.124 124.89 33.86 124.89 37.06C124.89 40.612 123.434 43.652 120.522 46.18L111.114 53.668H122.058ZM146.839 25.396C149.591 25.396 151.943 26.388 153.895 28.372C155.879 30.324 156.871 32.676 156.871 35.428V50.308C156.871 53.092 155.879 55.46 153.895 57.412C151.943 59.364 149.591 60.34 146.839 60.34H140.263C137.479 60.34 135.111 59.364 133.159 57.412C131.207 55.46 130.231 53.092 130.231 50.308V35.428C130.231 32.676 131.207 30.324 133.159 28.372C135.111 26.388 137.479 25.396 140.263 25.396H146.839ZM150.199 50.308V35.428C150.199 34.5 149.863 33.716 149.191 33.076C148.551 32.404 147.767 32.068 146.839 32.068H140.263C139.335 32.068 138.535 32.404 137.863 33.076C137.223 33.716 136.903 34.5 136.903 35.428V50.308C136.903 51.236 137.223 52.036 137.863 52.708C138.535 53.348 139.335 53.668 140.263 53.668H146.839C147.767 53.668 148.551 53.348 149.191 52.708C149.863 52.036 150.199 51.236 150.199 50.308ZM184.636 53.668C185.564 53.668 186.348 54.004 186.988 54.676C187.66 55.316 187.996 56.084 187.996 56.98C187.996 57.908 187.66 58.692 186.988 59.332C186.348 60.004 185.564 60.34 184.636 60.34H164.188C162.748 60.34 161.692 59.588 161.02 58.084C160.572 56.644 160.924 55.412 162.076 54.388L178.924 40.948C180.172 39.86 180.796 38.564 180.796 37.06C180.796 35.684 180.3 34.516 179.308 33.556C178.348 32.564 177.18 32.068 175.804 32.068H171.868C170.812 32.068 169.9 32.452 169.132 33.22C168.396 33.956 168.028 34.852 168.028 35.908C168.028 36.836 167.708 37.62 167.068 38.26C166.428 38.9 165.644 39.22 164.716 39.22C163.788 39.22 162.988 38.9 162.316 38.26C161.676 37.62 161.356 36.836 161.356 35.908C161.356 32.996 162.38 30.516 164.428 28.468C166.476 26.42 168.956 25.396 171.868 25.396H175.804C179.004 25.396 181.74 26.548 184.012 28.852C186.316 31.124 187.468 33.86 187.468 37.06C187.468 40.612 186.012 43.652 183.1 46.18L173.692 53.668H184.636ZM206.825 36.148C210.153 36.148 213.001 37.332 215.369 39.7C217.737 42.068 218.921 44.916 218.921 48.244C218.921 51.572 217.737 54.42 215.369 56.788C213.001 59.156 210.153 60.34 206.825 60.34H195.641C194.713 60.34 193.913 60.004 193.241 59.332C192.601 58.692 192.281 57.908 192.281 56.98C192.281 56.084 192.601 55.316 193.241 54.676C193.913 54.004 194.713 53.668 195.641 53.668H206.825C208.297 53.668 209.561 53.14 210.617 52.084C211.705 51.028 212.249 49.748 212.249 48.244C212.249 46.74 211.705 45.46 210.617 44.404C209.561 43.348 208.297 42.82 206.825 42.82H204.713C204.681 42.82 204.649 42.82 204.617 42.82H196.697C195.193 42.82 194.121 42.036 193.481 40.468C193.385 40.148 193.337 39.828 193.337 39.508C193.337 39.476 193.337 39.46 193.337 39.46V28.756C193.337 27.828 193.657 27.044 194.297 26.404C194.969 25.732 195.769 25.396 196.697 25.396H214.025C214.953 25.396 215.737 25.732 216.377 26.404C217.049 27.044 217.385 27.828 217.385 28.756C217.385 29.684 217.049 30.468 216.377 31.108C215.737 31.748 214.953 32.068 214.025 32.068H200.009V36.148H206.825Z" fill="#BBBBBB"/>
<path d="M0.00585938 20C0.00585938 8.95431 8.96017 0 20.0059 0H60.0059C71.0516 0 80.0059 8.95431 80.0059 20V60C80.0059 71.0457 71.0516 80 60.0059 80H20.0059C8.96017 80 0.00585938 71.0457 0.00585938 60V20Z" fill="#442B1B"/>
<path d="M37.0891 48.3333L26.2558 37.5C24.9363 36.1805 24.6419 34.6708 25.3725 32.9708C26.1002 31.268 27.4016 30.4166 29.2766 30.4166H50.735C52.61 30.4166 53.9113 31.268 54.6391 32.9708C55.3697 34.6708 55.0752 36.1805 53.7558 37.5L42.9225 48.3333C42.5058 48.75 42.0544 49.0625 41.5683 49.2708C41.0822 49.4791 40.5613 49.5833 40.0058 49.5833C39.4502 49.5833 38.9294 49.4791 38.4433 49.2708C37.9572 49.0625 37.5058 48.75 37.0891 48.3333Z" fill="white"/>
<path d="M265.882 62.26C264.122 62.26 262.602 61.636 261.322 60.388C260.074 59.14 259.45 57.62 259.45 55.828V51.556C259.45 50.596 259.786 49.78 260.458 49.108C261.162 48.404 262.01 48.052 263.002 48.052C263.962 48.052 264.778 48.404 265.45 49.108C266.154 49.78 266.506 50.596 266.506 51.556V54.436C266.506 55.332 267.034 55.876 268.09 56.068H290.362C291.194 56.068 291.914 56.34 292.522 56.884C293.162 57.46 293.514 58.18 293.578 59.044C293.578 59.972 293.274 60.74 292.666 61.348C292.058 61.956 291.322 62.26 290.458 62.26H265.882ZM258.01 38.164V27.076C258.01 26.116 258.346 25.3 259.018 24.628C259.69 23.924 260.506 23.572 261.466 23.572C262.426 23.572 263.242 23.924 263.914 24.628C264.618 25.3 264.97 26.116 264.97 27.076V37.588C264.97 38.484 265.274 39.252 265.882 39.892C266.522 40.5 267.29 40.804 268.186 40.804H278.362C278.298 40.548 278.266 40.276 278.266 39.988C278.266 39.188 278.538 38.516 279.082 37.972C279.626 37.428 280.282 37.156 281.05 37.156H286.138V34.66H281.05C280.282 34.66 279.626 34.388 279.082 33.844C278.538 33.3 278.266 32.644 278.266 31.876C278.266 31.076 278.538 30.404 279.082 29.86C279.626 29.316 280.282 29.044 281.05 29.044H286.138V27.076C286.138 26.116 286.474 25.3 287.146 24.628C287.818 23.924 288.634 23.572 289.594 23.572C290.554 23.572 291.37 23.924 292.042 24.628C292.746 25.3 293.098 26.116 293.098 27.076V47.236C293.098 48.196 292.746 49.028 292.042 49.732C291.37 50.404 290.554 50.74 289.594 50.74C288.634 50.74 287.818 50.404 287.146 49.732C286.474 49.028 286.138 48.196 286.138 47.236V42.772H282.394C282.522 43.124 282.586 43.492 282.586 43.876C282.586 44.74 282.282 45.476 281.674 46.084C281.098 46.692 280.378 46.996 279.514 46.996H266.842C264.41 46.996 262.33 46.132 260.602 44.404C258.874 42.676 258.01 40.596 258.01 38.164Z" fill="black"/>
</svg>
