<svg width="34" height="37" viewBox="0 0 34 37" fill="none" xmlns="http://www.w3.org/2000/svg">
<path d="M5.57698 3.50137C6.38107 1.81059 8.36639 1.06097 10.0764 1.76957L10.2413 1.84341L10.3887 1.91787C11.3498 2.43084 11.9744 3.33594 12.1685 4.33792C13.0215 4.09184 13.8973 3.91456 14.7886 3.81313C18.1483 3.43088 21.5439 4.12138 24.487 5.78715C27.4299 7.45279 29.7698 10.0074 31.1716 13.0845C32.5734 16.1618 32.9659 19.6046 32.2912 22.9184C31.6164 26.232 29.9093 29.247 27.4159 31.5311C24.9224 33.8153 21.7691 35.252 18.4092 35.6343C15.0493 36.0165 11.6545 35.3239 8.71175 33.6583C5.76905 31.9927 3.42894 29.438 2.02718 26.361L1.99014 26.2794L1.96728 26.1924C0.851425 21.7941 6.24667 18.7273 9.45471 21.9367L9.90512 22.3875L10.0332 22.5155L10.1079 22.6795C10.7324 24.0504 11.7751 25.1894 13.0861 25.9314C14.3969 26.6732 15.9087 26.9809 17.405 26.8108C18.9017 26.6405 20.3069 26.0003 21.4178 24.9827C22.5286 23.965 23.2892 22.6221 23.5897 21.1464C23.8901 19.6708 23.7153 18.137 23.0909 16.766C22.4664 15.3952 21.4241 14.2568 20.1132 13.5149C18.802 12.7727 17.2894 12.4651 15.7929 12.6353C15.5572 12.6621 15.3237 12.7011 15.0932 12.7511C15.756 13.7423 15.8967 15.0467 15.3479 16.2017L15.3471 16.2022C14.517 17.9473 12.4285 18.6902 10.6828 17.8602L4.11241 14.7363L4.11048 14.7353L3.94958 14.6537C2.32093 13.7747 1.64948 11.7625 2.45309 10.0717L5.57698 3.50137Z" fill="#02E819" stroke="black" stroke-width="2" stroke-linecap="round"/>
</svg>
