<svg width="49" height="48" viewBox="0 0 49 48" fill="none" xmlns="http://www.w3.org/2000/svg">
<g clip-path="url(#clip0_2_658)">
<path d="M45.3555 13.7477C46.7362 13.7477 47.8555 14.867 47.8555 16.2477V25.3239C47.8555 26.131 47.8567 26.8723 47.8301 27.5261L47.793 28.1501C47.7416 28.7782 47.6413 29.43 47.4053 30.0768L47.2959 30.3532L47.2881 30.3698L47.1533 30.655L47.1465 30.6686C46.6354 31.6716 45.8749 32.5229 44.9424 33.1403L44.7539 33.2604C44.7479 33.2641 44.7415 33.2677 44.7354 33.2712L44.3213 33.5016L44.3057 33.5104C43.5724 33.884 42.8229 34.0476 42.0967 34.1276L41.7871 34.1569C40.9973 34.2214 40.0407 34.2175 38.9668 34.2175L38.9678 34.2184L18.3555 34.4841L24.1035 40.2321L24.1221 40.2516L24.2588 40.404L24.2744 40.4225C25.0251 41.3433 25.0222 42.6725 24.2646 43.5895L24.1035 43.7673C23.2451 44.6257 21.9189 44.7293 20.9473 44.0788L20.7578 43.9382L20.7402 43.9225L20.5879 43.7858C20.5812 43.7799 20.5747 43.7736 20.5684 43.7673L10.5684 33.7673C9.59214 32.791 9.59208 31.2084 10.5684 30.2321L20.5684 20.2321L20.7578 20.0612C21.7397 19.2601 23.1881 19.3168 24.1035 20.2321L24.2754 20.4225C25.0226 21.3389 25.0227 22.6615 24.2754 23.5778L24.1035 23.7673L18.3867 29.4831L38.9551 29.2194L38.9609 29.2184L40.4033 29.2126C40.7958 29.2068 41.1108 29.1956 41.3809 29.1735L41.6953 29.1393C41.9285 29.1052 42.0101 29.0677 42.0312 29.0573L42.2441 28.9255C42.4306 28.788 42.5843 28.6086 42.6904 28.402L42.709 28.36C42.7328 28.2938 42.7792 28.1275 42.8105 27.7448L42.8359 27.3015C42.8549 26.8167 42.8555 26.1939 42.8555 25.3239V16.2477C42.8555 14.8671 43.9748 13.7478 45.3555 13.7477Z" fill="#4D2700" stroke="white" stroke-linecap="round" stroke-linejoin="round"/>
</g>
<defs>
<clipPath id="clip0_2_658">
<rect width="48" height="48" fill="white" transform="translate(0.335938)"/>
</clipPath>
</defs>
</svg>
