<svg width="54" height="54" viewBox="0 0 54 54" fill="none" xmlns="http://www.w3.org/2000/svg">
<g filter="url(#filter0_dii_2_707)">
<mask id="path-1-inside-1_2_707" fill="white">
<path d="M27.6143 0.705566C39.8209 1.01486 49.6219 11.0065 49.6221 23.2876L49.6143 23.8706C49.3052 36.0774 39.3125 45.8782 27.0312 45.8784L26.4482 45.8706C14.4353 45.5661 4.75336 35.8837 4.44922 23.8706L4.44141 23.2876C4.4416 10.8117 14.5553 0.697952 27.0312 0.697754L27.6143 0.705566ZM27.0312 10.6978C20.0782 10.698 14.4416 16.3345 14.4414 23.2876C14.4414 30.2409 20.078 35.8782 27.0312 35.8784C33.9844 35.8782 39.6221 30.2408 39.6221 23.2876C39.6219 16.3345 33.9843 10.698 27.0312 10.6978Z"/>
</mask>
<path d="M27.6143 0.705566C39.8209 1.01486 49.6219 11.0065 49.6221 23.2876L49.6143 23.8706C49.3052 36.0774 39.3125 45.8782 27.0312 45.8784L26.4482 45.8706C14.4353 45.5661 4.75336 35.8837 4.44922 23.8706L4.44141 23.2876C4.4416 10.8117 14.5553 0.697952 27.0312 0.697754L27.6143 0.705566ZM27.0312 10.6978C20.0782 10.698 14.4416 16.3345 14.4414 23.2876C14.4414 30.2409 20.078 35.8782 27.0312 35.8784C33.9844 35.8782 39.6221 30.2408 39.6221 23.2876C39.6219 16.3345 33.9843 10.698 27.0312 10.6978Z" fill="#4D2700"/>
<path d="M27.6143 0.705566C39.8209 1.01486 49.6219 11.0065 49.6221 23.2876L49.6143 23.8706C49.3052 36.0774 39.3125 45.8782 27.0312 45.8784L26.4482 45.8706C14.4353 45.5661 4.75336 35.8837 4.44922 23.8706L4.44141 23.2876C4.4416 10.8117 14.5553 0.697952 27.0312 0.697754L27.6143 0.705566ZM27.0312 10.6978C20.0782 10.698 14.4416 16.3345 14.4414 23.2876C14.4414 30.2409 20.078 35.8782 27.0312 35.8784C33.9844 35.8782 39.6221 30.2408 39.6221 23.2876C39.6219 16.3345 33.9843 10.698 27.0312 10.6978Z" fill="white" fill-opacity="0.2"/>
<path d="M27.6143 0.705566L27.6396 -0.294184L27.6277 -0.294344L27.6143 0.705566ZM49.6221 23.2876L50.6221 23.301V23.2876L49.6221 23.2876ZM49.6143 23.8706L50.614 23.8959L50.6142 23.884L49.6143 23.8706ZM27.0312 45.8784L27.0178 46.8784H27.0313L27.0312 45.8784ZM26.4482 45.8706L26.4229 46.8704L26.4348 46.8705L26.4482 45.8706ZM4.44922 23.8706L3.44924 23.884L3.44954 23.8959L4.44922 23.8706ZM4.44141 23.2876L3.44132 23.2876L3.4415 23.301L4.44141 23.2876ZM27.0312 0.697754L27.0447 -0.302246L27.0312 -0.302246L27.0312 0.697754ZM27.0312 10.6978L27.0313 9.69775H27.0312L27.0312 10.6978ZM14.4414 23.2876L13.4414 23.2876V23.2876H14.4414ZM27.0312 35.8784L27.0312 36.8784H27.0313L27.0312 35.8784ZM39.6221 23.2876H40.6221V23.2876L39.6221 23.2876ZM27.6143 0.705566L27.5889 1.70525C39.2547 2.00084 48.6219 11.5504 48.6221 23.2876L49.6221 23.2876L50.6221 23.2876C50.6219 10.4626 40.387 0.0288877 27.6396 -0.294113L27.6143 0.705566ZM49.6221 23.2876L48.6222 23.2742L48.6143 23.8572L49.6143 23.8706L50.6142 23.884L50.622 23.301L49.6221 23.2876ZM49.6143 23.8706L48.6146 23.8453C48.3192 35.5112 38.7687 44.8782 27.0312 44.8784L27.0312 45.8784L27.0313 46.8784C39.8563 46.8781 50.2912 36.6436 50.6139 23.8959L49.6143 23.8706ZM27.0312 45.8784L27.0446 44.8785L26.4616 44.8707L26.4482 45.8706L26.4348 46.8705L27.0179 46.8783L27.0312 45.8784ZM26.4482 45.8706L26.4736 44.8709C14.993 44.5799 5.73956 35.326 5.4489 23.8453L4.44922 23.8706L3.44954 23.8959C3.76716 36.4414 13.8775 46.5523 26.4229 46.8703L26.4482 45.8706ZM4.44922 23.8706L5.44913 23.8572L5.44132 23.2742L4.44141 23.2876L3.4415 23.301L3.44931 23.884L4.44922 23.8706ZM4.44141 23.2876L5.44141 23.2876C5.4416 11.3639 15.1076 1.69794 27.0313 1.69775L27.0312 0.697754L27.0312 -0.302246C14.003 -0.302039 3.44161 10.2594 3.44141 23.2876L4.44141 23.2876ZM27.0312 0.697754L27.0179 1.69766L27.6009 1.70548L27.6143 0.705566L27.6277 -0.294344L27.0446 -0.302156L27.0312 0.697754ZM27.0312 10.6978L27.0312 9.69775C19.5259 9.69797 13.4416 15.7822 13.4414 23.2876L14.4414 23.2876L15.4414 23.2876C15.4416 16.8868 20.6305 11.6979 27.0313 11.6978L27.0312 10.6978ZM14.4414 23.2876H13.4414C13.4414 30.7931 19.5257 36.8782 27.0312 36.8784L27.0312 35.8784L27.0313 34.8784C20.6304 34.8782 15.4414 29.6886 15.4414 23.2876H14.4414ZM27.0312 35.8784L27.0313 36.8784C34.5367 36.8781 40.6221 30.7931 40.6221 23.2876H39.6221H38.6221C38.6221 29.6885 33.4322 34.8782 27.0312 34.8784L27.0312 35.8784ZM39.6221 23.2876L40.6221 23.2876C40.6219 15.7821 34.5365 9.69804 27.0313 9.69775L27.0312 10.6978L27.0312 11.6978C33.4321 11.698 38.6219 16.8869 38.6221 23.2876L39.6221 23.2876Z" fill="black" mask="url(#path-1-inside-1_2_707)"/>
</g>
<defs>
<filter id="filter0_dii_2_707" x="0.441406" y="0.697754" width="53.1807" height="53.1807" filterUnits="userSpaceOnUse" color-interpolation-filters="sRGB">
<feFlood flood-opacity="0" result="BackgroundImageFix"/>
<feColorMatrix in="SourceAlpha" type="matrix" values="0 0 0 0 0 0 0 0 0 0 0 0 0 0 0 0 0 0 127 0" result="hardAlpha"/>
<feOffset dy="4"/>
<feGaussianBlur stdDeviation="2"/>
<feComposite in2="hardAlpha" operator="out"/>
<feColorMatrix type="matrix" values="0 0 0 0 0 0 0 0 0 0 0 0 0 0 0 0 0 0 0.25 0"/>
<feBlend mode="normal" in2="BackgroundImageFix" result="effect1_dropShadow_2_707"/>
<feBlend mode="normal" in="SourceGraphic" in2="effect1_dropShadow_2_707" result="shape"/>
<feColorMatrix in="SourceAlpha" type="matrix" values="0 0 0 0 0 0 0 0 0 0 0 0 0 0 0 0 0 0 127 0" result="hardAlpha"/>
<feOffset dy="2"/>
<feComposite in2="hardAlpha" operator="arithmetic" k2="-1" k3="1"/>
<feColorMatrix type="matrix" values="0 0 0 0 1 0 0 0 0 1 0 0 0 0 1 0 0 0 0.25 0"/>
<feBlend mode="normal" in2="shape" result="effect2_innerShadow_2_707"/>
<feColorMatrix in="SourceAlpha" type="matrix" values="0 0 0 0 0 0 0 0 0 0 0 0 0 0 0 0 0 0 127 0" result="hardAlpha"/>
<feOffset dy="-2"/>
<feComposite in2="hardAlpha" operator="arithmetic" k2="-1" k3="1"/>
<feColorMatrix type="matrix" values="0 0 0 0 0.535771 0 0 0 0 0 0 0 0 0 0 0 0 0 0.25 0"/>
<feBlend mode="normal" in2="effect2_innerShadow_2_707" result="effect3_innerShadow_2_707"/>
</filter>
</defs>
</svg>
