<svg viewBox="0 0 80 80" fill="none" xmlns="http://www.w3.org/2000/svg">
<path d="M0.00585938 20C0.00585938 8.95431 8.96017 0 20.0059 0H60.0059C71.0516 0 80.0059 8.95431 80.0059 20V60C80.0059 71.0457 71.0516 80 60.0059 80H20.0059C8.96017 80 0.00585938 71.0457 0.00585938 60V20Z" fill="#442B1B"/>
<path d="M37.0891 48.3333L26.2558 37.5C24.9363 36.1805 24.6419 34.6708 25.3725 32.9708C26.1002 31.268 27.4016 30.4166 29.2766 30.4166H50.735C52.61 30.4166 53.9113 31.268 54.6391 32.9708C55.3697 34.6708 55.0752 36.1805 53.7558 37.5L42.9225 48.3333C42.5058 48.75 42.0544 49.0625 41.5683 49.2708C41.0822 49.4791 40.5613 49.5833 40.0058 49.5833C39.4502 49.5833 38.9294 49.4791 38.4433 49.2708C37.9572 49.0625 37.5058 48.75 37.0891 48.3333Z" fill="white"/>
</svg>
