<svg width="auto" height="auto" viewBox="0 0 54 54" fill="none" xmlns="http://www.w3.org/2000/svg">
<g clip-path="url(#clip0_2_319)">
<path d="M50.5459 15.7319C52.0414 15.7321 53.2537 16.9444 53.2539 18.4399V28.4624C53.2539 29.6516 53.2567 30.7076 53.1855 31.5786C53.121 32.3683 52.9852 33.1882 52.6396 33.9946L52.4834 34.3267C52.4813 34.331 52.4787 34.3351 52.4766 34.3394C51.879 35.5121 50.9702 36.4951 49.8535 37.1802C49.8477 37.1838 49.8419 37.1876 49.8359 37.1909L49.3779 37.4458C49.3727 37.4487 49.3676 37.4519 49.3623 37.4546C48.4456 37.9216 47.5043 38.0887 46.6006 38.1626C45.7309 38.2336 44.6771 38.23 43.4902 38.23L43.4912 38.231L20.6084 38.5259L27.043 44.9604L27.0615 44.98L27.2119 45.1479C27.2171 45.1537 27.2226 45.1595 27.2275 45.1655C28.0952 46.2294 28.0346 47.7976 27.043 48.7896C26.0511 49.7814 24.4829 49.8426 23.4189 48.9751C23.4128 48.9701 23.4062 48.9647 23.4004 48.9595L23.2324 48.8081C23.2258 48.8022 23.2192 48.7958 23.2129 48.7896L12.1709 37.7485C11.1133 36.6909 11.1134 34.9761 12.1709 33.9185L23.2129 22.8765C24.2706 21.819 25.9854 21.8189 27.043 22.8765C28.1006 23.9341 28.1004 25.6489 27.043 26.7065L20.6396 33.1089L43.4785 32.8149H43.4854C44.7649 32.8149 45.5621 32.8131 46.1611 32.7642C46.6796 32.7217 46.8481 32.6548 46.8936 32.6333L47.1406 32.481C47.3522 32.325 47.5266 32.1214 47.6475 31.8872L47.6758 31.8218C47.7048 31.7372 47.7537 31.547 47.7871 31.1392L47.8154 30.6479C47.8364 30.1109 47.8369 29.4224 47.8369 28.4624V18.4399C47.8371 16.9443 49.0502 15.7319 50.5459 15.7319Z" fill="#4D2700" stroke="white" stroke-linecap="round" stroke-linejoin="round"/>
</g>
<defs>
<clipPath id="clip0_2_319">
<rect width="53" height="53" fill="white" transform="translate(0.835938 0.5)"/>
</clipPath>
</defs>
</svg>
