<svg width="46" height="46" viewBox="0 0 46 46" fill="none" xmlns="http://www.w3.org/2000/svg">
<path d="M29.6133 5.28174C30.417 5.08927 31.255 5.08934 32.0586 5.28174C32.0779 5.28635 32.0971 5.29101 32.1162 5.29639L32.4023 5.37744L32.5518 5.42822L32.9365 5.58154L33.0234 5.61963C33.5448 5.86734 33.9511 6.17563 34.251 6.43018C34.619 6.74257 35.0091 7.13653 35.3389 7.46631L38.6016 10.728L38.6094 10.7358L39.1182 11.2515L39.1279 11.2612C39.2962 11.4351 39.4763 11.6253 39.6406 11.8188C39.937 12.168 40.3085 12.6633 40.5723 13.3218L40.6777 13.6138L40.6953 13.6704L40.7754 13.9556C40.7808 13.9746 40.7864 13.9939 40.791 14.0132C40.9836 14.8171 40.9833 15.6562 40.791 16.4595C40.7864 16.4788 40.7808 16.498 40.7754 16.5171L40.6953 16.8022C40.69 16.8211 40.6838 16.8402 40.6777 16.8589C40.4158 17.6652 39.979 18.2552 39.6406 18.6538C39.3279 19.0221 38.9323 19.4119 38.6016 19.7427L18.2227 40.1226C17.6294 40.7158 16.8376 41.0656 16.0029 41.1069L15.8359 41.1118H8.33594C7.44042 41.1118 6.58186 40.7552 5.94922 40.1226C5.317 39.4901 4.96105 38.6321 4.96094 37.7368V30.2368C4.96094 30.2122 4.96168 30.1872 4.96289 30.1626L4.97168 29.9771L4.97754 29.9038C5.05421 29.1309 5.39559 28.4038 5.94922 27.8501L26.3271 7.47217C26.3305 7.46876 26.3335 7.4648 26.3369 7.46143C26.6719 7.12642 27.0564 6.74158 27.4209 6.43213C27.8173 6.0956 28.4056 5.65646 29.2129 5.39404L29.2695 5.37744L29.5557 5.29639L29.6133 5.28174ZM11.7109 31.6343V34.3618H14.4375L26.0625 22.7358L23.3359 20.0093L11.7109 31.6343ZM28.1084 15.2358L30.8359 17.9634L33.5615 15.2368L30.8369 12.5093L28.1084 15.2358ZM31.7803 11.5825C31.7826 11.5805 31.7858 11.5796 31.7881 11.5776L31.7871 11.5767C31.7847 11.5787 31.7825 11.5807 31.7803 11.5825Z" fill="#4D2700" stroke="white" stroke-width="3" stroke-linecap="round" stroke-linejoin="round"/>
</svg>
