<svg width="41" height="41" viewBox="0 0 41 41" fill="none" xmlns="http://www.w3.org/2000/svg">
<mask id="path-1-inside-1_544_1107" fill="white">
<path d="M31.3506 0.512695C36.6343 0.780543 40.8359 5.14975 40.8359 10.5V30.5L40.8232 31.0146C40.5554 36.2983 36.1862 40.5 30.8359 40.5H10.8359L10.3213 40.4873C5.03761 40.2195 0.835938 35.8502 0.835938 30.5V10.5C0.835938 5.14975 5.03761 0.780543 10.3213 0.512695L10.8359 0.5H30.8359L31.3506 0.512695ZM10.8359 8.5C9.73137 8.5 8.83594 9.39543 8.83594 10.5V30.5C8.83594 31.6046 9.73137 32.5 10.8359 32.5H30.8359C31.9405 32.5 32.8359 31.6046 32.8359 30.5V10.5C32.8359 9.39543 31.9405 8.5 30.8359 8.5H10.8359Z"/>
</mask>
<g filter="url(#filter0_ii_544_1107)">
<path d="M31.3506 0.512695C36.6343 0.780543 40.8359 5.14975 40.8359 10.5V30.5L40.8232 31.0146C40.5554 36.2983 36.1862 40.5 30.8359 40.5H10.8359L10.3213 40.4873C5.03761 40.2195 0.835938 35.8502 0.835938 30.5V10.5C0.835938 5.14975 5.03761 0.780543 10.3213 0.512695L10.8359 0.5H30.8359L31.3506 0.512695ZM10.8359 8.5C9.73137 8.5 8.83594 9.39543 8.83594 10.5V30.5C8.83594 31.6046 9.73137 32.5 10.8359 32.5H30.8359C31.9405 32.5 32.8359 31.6046 32.8359 30.5V10.5C32.8359 9.39543 31.9405 8.5 30.8359 8.5H10.8359Z" fill="#D1D1D1"/>
</g>
<path d="M31.3506 0.512695L31.4012 -0.486022L31.3882 -0.48668L31.3752 -0.487001L31.3506 0.512695ZM40.8359 30.5L41.8356 30.5247L41.8359 30.5123V30.5H40.8359ZM40.8232 31.0146L41.822 31.0653L41.8226 31.0523L41.8229 31.0393L40.8232 31.0146ZM10.8359 40.5L10.8113 41.4997L10.8236 41.5H10.8359V40.5ZM10.3213 40.4873L10.2707 41.486L10.2836 41.4867L10.2966 41.487L10.3213 40.4873ZM10.3213 0.512695L10.2966 -0.487001L10.2836 -0.48668L10.2707 -0.486022L10.3213 0.512695ZM10.8359 0.5V-0.5H10.8236L10.8113 -0.499696L10.8359 0.5ZM30.8359 0.5L30.8606 -0.499696L30.8483 -0.5H30.8359V0.5ZM32.8359 30.5H33.8359H32.8359ZM30.8359 8.5V7.5V8.5ZM31.3506 0.512695L31.3 1.51141C36.0544 1.75243 39.8359 5.68504 39.8359 10.5H40.8359H41.8359C41.8359 4.61447 37.2141 -0.191345 31.4012 -0.486022L31.3506 0.512695ZM40.8359 10.5H39.8359V30.5H40.8359H41.8359V10.5H40.8359ZM40.8359 30.5L39.8362 30.4753L39.8235 30.99L40.8232 31.0146L41.8229 31.0393L41.8356 30.5247L40.8359 30.5ZM40.8232 31.0146L39.8245 30.964C39.5835 35.7185 35.6509 39.5 30.8359 39.5V40.5V41.5C36.7215 41.5 41.5273 36.8782 41.822 31.0653L40.8232 31.0146ZM30.8359 40.5V39.5H10.8359V40.5V41.5H30.8359V40.5ZM10.8359 40.5L10.8606 39.5003L10.3459 39.4876L10.3213 40.4873L10.2966 41.487L10.8113 41.4997L10.8359 40.5ZM10.3213 40.4873L10.3719 39.4886C5.61748 39.2476 1.83594 35.315 1.83594 30.5H0.835938H-0.164062C-0.164062 36.3855 4.45773 41.1913 10.2707 41.486L10.3213 40.4873ZM0.835938 30.5H1.83594V10.5H0.835938H-0.164062V30.5H0.835938ZM0.835938 10.5H1.83594C1.83594 5.68504 5.61748 1.75243 10.3719 1.51141L10.3213 0.512695L10.2707 -0.486022C4.45773 -0.191345 -0.164062 4.61447 -0.164062 10.5H0.835938ZM10.3213 0.512695L10.3459 1.51239L10.8606 1.4997L10.8359 0.5L10.8113 -0.499696L10.2966 -0.487001L10.3213 0.512695ZM10.8359 0.5V1.5H30.8359V0.5V-0.5H10.8359V0.5ZM30.8359 0.5L30.8113 1.4997L31.3259 1.51239L31.3506 0.512695L31.3752 -0.487001L30.8606 -0.499696L30.8359 0.5ZM10.8359 8.5V7.5C9.17908 7.5 7.83594 8.84315 7.83594 10.5H8.83594H9.83594C9.83594 9.94772 10.2837 9.5 10.8359 9.5V8.5ZM8.83594 10.5H7.83594V30.5H8.83594H9.83594V10.5H8.83594ZM8.83594 30.5H7.83594C7.83594 32.1569 9.17908 33.5 10.8359 33.5V32.5V31.5C10.2837 31.5 9.83594 31.0523 9.83594 30.5H8.83594ZM10.8359 32.5V33.5H30.8359V32.5V31.5H10.8359V32.5ZM30.8359 32.5V33.5C32.4928 33.5 33.8359 32.1569 33.8359 30.5H32.8359H31.8359C31.8359 31.0523 31.3882 31.5 30.8359 31.5V32.5ZM32.8359 30.5H33.8359V10.5H32.8359H31.8359V30.5H32.8359ZM32.8359 10.5H33.8359C33.8359 8.84315 32.4928 7.5 30.8359 7.5V8.5V9.5C31.3882 9.5 31.8359 9.94772 31.8359 10.5H32.8359ZM30.8359 8.5V7.5H10.8359V8.5V9.5H30.8359V8.5Z" fill="black" mask="url(#path-1-inside-1_544_1107)"/>
<defs>
<filter id="filter0_ii_544_1107" x="0.835938" y="0.5" width="40" height="40" filterUnits="userSpaceOnUse" color-interpolation-filters="sRGB">
<feFlood flood-opacity="0" result="BackgroundImageFix"/>
<feBlend mode="normal" in="SourceGraphic" in2="BackgroundImageFix" result="shape"/>
<feColorMatrix in="SourceAlpha" type="matrix" values="0 0 0 0 0 0 0 0 0 0 0 0 0 0 0 0 0 0 127 0" result="hardAlpha"/>
<feOffset dy="2"/>
<feComposite in2="hardAlpha" operator="arithmetic" k2="-1" k3="1"/>
<feColorMatrix type="matrix" values="0 0 0 0 1 0 0 0 0 1 0 0 0 0 1 0 0 0 1 0"/>
<feBlend mode="normal" in2="shape" result="effect1_innerShadow_544_1107"/>
<feColorMatrix in="SourceAlpha" type="matrix" values="0 0 0 0 0 0 0 0 0 0 0 0 0 0 0 0 0 0 127 0" result="hardAlpha"/>
<feOffset dy="-2"/>
<feComposite in2="hardAlpha" operator="arithmetic" k2="-1" k3="1"/>
<feColorMatrix type="matrix" values="0 0 0 0 0.138044 0 0 0 0 0.138044 0 0 0 0 0.138044 0 0 0 1 0"/>
<feBlend mode="normal" in2="effect1_innerShadow_544_1107" result="effect2_innerShadow_544_1107"/>
</filter>
</defs>
</svg>
