<svg width="71" height="73" viewBox="0 0 71 73" fill="none" xmlns="http://www.w3.org/2000/svg">
<mask id="path-1-inside-1_544_1087" fill="white">
<path d="M39.2456 33.0127C44.5293 33.2805 48.731 37.6498 48.731 43V63L48.7183 63.5146C48.4504 68.7983 44.0812 73 38.731 73H18.731L18.2163 72.9873C12.9326 72.7195 8.73096 68.3502 8.73096 63V43C8.73096 37.6498 12.9326 33.2805 18.2163 33.0127L18.731 33H38.731L39.2456 33.0127ZM18.731 41C17.6264 41 16.731 41.8954 16.731 43V63C16.731 64.1046 17.6264 65 18.731 65H38.731C39.8355 65 40.731 64.1046 40.731 63V43C40.731 41.8954 39.8355 41 38.731 41H18.731Z"/>
</mask>
<g filter="url(#filter0_ii_544_1087)">
<path d="M39.2456 33.0127C44.5293 33.2805 48.731 37.6498 48.731 43V63L48.7183 63.5146C48.4504 68.7983 44.0812 73 38.731 73H18.731L18.2163 72.9873C12.9326 72.7195 8.73096 68.3502 8.73096 63V43C8.73096 37.6498 12.9326 33.2805 18.2163 33.0127L18.731 33H38.731L39.2456 33.0127ZM18.731 41C17.6264 41 16.731 41.8954 16.731 43V63C16.731 64.1046 17.6264 65 18.731 65H38.731C39.8355 65 40.731 64.1046 40.731 63V43C40.731 41.8954 39.8355 41 38.731 41H18.731Z" fill="#D1D1D1"/>
</g>
<path d="M39.2456 33.0127L39.2962 32.014L39.2833 32.0133L39.2703 32.013L39.2456 33.0127ZM48.731 63L49.7307 63.0247L49.731 63.0123V63H48.731ZM48.7183 63.5146L49.717 63.5653L49.7176 63.5523L49.718 63.5393L48.7183 63.5146ZM18.731 73L18.7063 73.9997L18.7186 74H18.731V73ZM18.2163 72.9873L18.1657 73.986L18.1787 73.9867L18.1916 73.987L18.2163 72.9873ZM18.2163 33.0127L18.1916 32.013L18.1787 32.0133L18.1657 32.014L18.2163 33.0127ZM18.731 33V32H18.7186L18.7063 32.0003L18.731 33ZM38.731 33L38.7556 32.0003L38.7433 32H38.731V33ZM40.731 63H41.731H40.731ZM38.731 41V40V41ZM39.2456 33.0127L39.195 34.0114C43.9494 34.2524 47.731 38.185 47.731 43H48.731H49.731C49.731 37.1145 45.1092 32.3087 39.2962 32.014L39.2456 33.0127ZM48.731 43H47.731V63H48.731H49.731V43H48.731ZM48.731 63L47.7313 62.9753L47.7186 63.49L48.7183 63.5146L49.718 63.5393L49.7307 63.0247L48.731 63ZM48.7183 63.5146L47.7195 63.464C47.4785 68.2185 43.5459 72 38.731 72V73V74C44.6165 74 49.4223 69.3782 49.717 63.5653L48.7183 63.5146ZM38.731 73V72H18.731V73V74H38.731V73ZM18.731 73L18.7556 72.0003L18.241 71.9876L18.2163 72.9873L18.1916 73.987L18.7063 73.9997L18.731 73ZM18.2163 72.9873L18.2669 71.9886C13.5125 71.7476 9.73096 67.815 9.73096 63H8.73096H7.73096C7.73096 68.8855 12.3528 73.6913 18.1657 73.986L18.2163 72.9873ZM8.73096 63H9.73096V43H8.73096H7.73096V63H8.73096ZM8.73096 43H9.73096C9.73096 38.185 13.5125 34.2524 18.2669 34.0114L18.2163 33.0127L18.1657 32.014C12.3528 32.3087 7.73096 37.1145 7.73096 43H8.73096ZM18.2163 33.0127L18.241 34.0124L18.7556 33.9997L18.731 33L18.7063 32.0003L18.1916 32.013L18.2163 33.0127ZM18.731 33V34H38.731V33V32H18.731V33ZM38.731 33L38.7063 33.9997L39.2209 34.0124L39.2456 33.0127L39.2703 32.013L38.7556 32.0003L38.731 33ZM18.731 41V40C17.0741 40 15.731 41.3431 15.731 43H16.731H17.731C17.731 42.4477 18.1787 42 18.731 42V41ZM16.731 43H15.731V63H16.731H17.731V43H16.731ZM16.731 63H15.731C15.731 64.6569 17.0741 66 18.731 66V65V64C18.1787 64 17.731 63.5523 17.731 63H16.731ZM18.731 65V66H38.731V65V64H18.731V65ZM38.731 65V66C40.3878 66 41.731 64.6569 41.731 63H40.731H39.731C39.731 63.5523 39.2832 64 38.731 64V65ZM40.731 63H41.731V43H40.731H39.731V63H40.731ZM40.731 43H41.731C41.731 41.3431 40.3878 40 38.731 40V41V42C39.2832 42 39.731 42.4477 39.731 43H40.731ZM38.731 41V40H18.731V41V42H38.731V41Z" fill="black" mask="url(#path-1-inside-1_544_1087)"/>
<g filter="url(#filter1_ii_544_1087)">
<path d="M58.5551 3.7401C60.5953 1.30872 64.2066 0.878528 66.767 2.81432C69.41 4.8128 69.9322 8.57645 67.934 11.2196L33.4204 56.8661C30.9379 60.1492 26.1994 60.5741 23.1743 57.8661L22.8872 57.5936L3.09321 37.7997C0.750297 35.4565 0.751042 31.6574 3.09418 29.3143C5.43742 26.9717 9.23661 26.9713 11.5795 29.3143L27.312 45.0477L58.3627 3.98131L58.5551 3.7401Z" fill="#12C424"/>
</g>
<path d="M58.5551 3.7401L57.7891 3.09731L57.7811 3.10684L57.7733 3.11657L58.5551 3.7401ZM66.767 2.81432L67.3702 2.01668L67.3701 2.01664L66.767 2.81432ZM67.934 11.2196L68.7317 11.8227L68.7317 11.8227L67.934 11.2196ZM33.4204 56.8661L34.218 57.4692L34.218 57.4692L33.4204 56.8661ZM23.1743 57.8661L22.4859 58.5914L22.4965 58.6015L22.5073 58.6112L23.1743 57.8661ZM22.8872 57.5936L22.18 58.3007L22.1893 58.31L22.1988 58.319L22.8872 57.5936ZM3.09321 37.7997L2.38605 38.5067L2.3861 38.5068L3.09321 37.7997ZM3.09418 29.3143L2.38717 28.6071L2.38709 28.6072L3.09418 29.3143ZM11.5795 29.3143L12.2867 28.6072L12.2867 28.6072L11.5795 29.3143ZM27.312 45.0477L26.6048 45.7548L27.4169 46.567L28.1096 45.6508L27.312 45.0477ZM58.3627 3.98131L57.5809 3.35778L57.5729 3.36788L57.5651 3.3782L58.3627 3.98131ZM58.5551 3.7401L59.3212 4.38289C61.0209 2.35731 64.0306 1.99909 66.164 3.612L66.767 2.81432L67.3701 2.01664C64.3826 -0.242031 60.1698 0.260138 57.7891 3.09731L58.5551 3.7401ZM66.767 2.81432L66.1639 3.61196C68.3663 5.27726 68.8016 8.41378 67.1363 10.6165L67.934 11.2196L68.7317 11.8227C71.0629 8.73912 70.4538 4.34834 67.3702 2.01668L66.767 2.81432ZM67.934 11.2196L67.1364 10.6165L32.6227 56.263L33.4204 56.8661L34.218 57.4692L68.7317 11.8227L67.934 11.2196ZM33.4204 56.8661L32.6227 56.263C30.4952 59.0767 26.4333 59.4413 23.8412 57.121L23.1743 57.8661L22.5073 58.6112C25.9655 61.7069 31.3806 61.2217 34.218 57.4692L33.4204 56.8661ZM23.1743 57.8661L23.8626 57.1407L23.5755 56.8682L22.8872 57.5936L22.1988 58.319L22.4859 58.5914L23.1743 57.8661ZM22.8872 57.5936L23.5943 56.8865L3.80031 37.0926L3.09321 37.7997L2.3861 38.5068L22.18 58.3007L22.8872 57.5936ZM3.09321 37.7997L3.80036 37.0926C1.84806 35.1401 1.84853 31.9741 3.80127 30.0214L3.09418 29.3143L2.38709 28.6072C-0.346442 31.3406 -0.347471 35.7729 2.38605 38.5067L3.09321 37.7997ZM3.09418 29.3143L3.80119 30.0215C5.75404 28.0692 8.92012 28.069 10.8724 30.0214L11.5795 29.3143L12.2867 28.6072C9.55309 25.8735 5.12081 25.8742 2.38717 28.6071L3.09418 29.3143ZM11.5795 29.3143L10.8724 30.0214L26.6048 45.7548L27.312 45.0477L28.0191 44.3406L12.2867 28.6072L11.5795 29.3143ZM27.312 45.0477L28.1096 45.6508L59.1604 4.58443L58.3627 3.98131L57.5651 3.3782L26.5143 44.4446L27.312 45.0477ZM58.3627 3.98131L59.1445 4.60485L59.3369 4.36364L58.5551 3.7401L57.7733 3.11657L57.5809 3.35778L58.3627 3.98131Z" fill="black"/>
<defs>
<filter id="filter0_ii_544_1087" x="8.73096" y="33" width="40" height="40" filterUnits="userSpaceOnUse" color-interpolation-filters="sRGB">
<feFlood flood-opacity="0" result="BackgroundImageFix"/>
<feBlend mode="normal" in="SourceGraphic" in2="BackgroundImageFix" result="shape"/>
<feColorMatrix in="SourceAlpha" type="matrix" values="0 0 0 0 0 0 0 0 0 0 0 0 0 0 0 0 0 0 127 0" result="hardAlpha"/>
<feOffset dy="2"/>
<feComposite in2="hardAlpha" operator="arithmetic" k2="-1" k3="1"/>
<feColorMatrix type="matrix" values="0 0 0 0 1 0 0 0 0 1 0 0 0 0 1 0 0 0 1 0"/>
<feBlend mode="normal" in2="shape" result="effect1_innerShadow_544_1087"/>
<feColorMatrix in="SourceAlpha" type="matrix" values="0 0 0 0 0 0 0 0 0 0 0 0 0 0 0 0 0 0 127 0" result="hardAlpha"/>
<feOffset dy="-2"/>
<feComposite in2="hardAlpha" operator="arithmetic" k2="-1" k3="1"/>
<feColorMatrix type="matrix" values="0 0 0 0 0.138044 0 0 0 0 0.138044 0 0 0 0 0.138044 0 0 0 1 0"/>
<feBlend mode="normal" in2="effect1_innerShadow_544_1087" result="effect2_innerShadow_544_1087"/>
</filter>
<filter id="filter1_ii_544_1087" x="0.336426" y="0.600098" width="69.812" height="60.0443" filterUnits="userSpaceOnUse" color-interpolation-filters="sRGB">
<feFlood flood-opacity="0" result="BackgroundImageFix"/>
<feBlend mode="normal" in="SourceGraphic" in2="BackgroundImageFix" result="shape"/>
<feColorMatrix in="SourceAlpha" type="matrix" values="0 0 0 0 0 0 0 0 0 0 0 0 0 0 0 0 0 0 127 0" result="hardAlpha"/>
<feOffset dy="-6"/>
<feComposite in2="hardAlpha" operator="arithmetic" k2="-1" k3="1"/>
<feColorMatrix type="matrix" values="0 0 0 0 0 0 0 0 0 0.439617 0 0 0 0 0.153867 0 0 0 1 0"/>
<feBlend mode="normal" in2="shape" result="effect1_innerShadow_544_1087"/>
<feColorMatrix in="SourceAlpha" type="matrix" values="0 0 0 0 0 0 0 0 0 0 0 0 0 0 0 0 0 0 127 0" result="hardAlpha"/>
<feOffset dy="5"/>
<feComposite in2="hardAlpha" operator="arithmetic" k2="-1" k3="1"/>
<feColorMatrix type="matrix" values="0 0 0 0 1 0 0 0 0 1 0 0 0 0 1 0 0 0 1 0"/>
<feBlend mode="normal" in2="effect1_innerShadow_544_1087" result="effect2_innerShadow_544_1087"/>
</filter>
</defs>
</svg>
